<svg xmlns="http://www.w3.org/2000/svg" width="97" height="97" viewBox="0 0 97 97" version="1.1"><path d="M 25.081 29.647 C 11.741 36.294, 9.320 53.588, 20.311 63.719 C 25.326 68.342, 32.679 70.659, 37.978 69.285 L 41.242 68.440 37.257 65.678 C 35.027 64.132, 32.062 60.693, 30.523 57.865 C 28.192 53.582, 27.837 51.927, 28.194 46.997 C 28.694 40.087, 32.265 33.956, 37.636 30.787 C 40.228 29.258, 40.804 28.491, 39.826 27.872 C 37.171 26.188, 30.381 27.006, 25.081 29.647 M 57 28 C 56.005 28.643, 55.920 28.975, 56.747 28.985 C 58.630 29.008, 65.913 35.934, 67.726 39.425 C 72.294 48.223, 67.657 61.963, 58.500 66.762 L 55.500 68.335 58.500 69.170 C 63.175 70.471, 69.708 69.048, 74.766 65.625 C 92.236 53.806, 83.359 26.961, 62 27.021 C 60.075 27.026, 57.825 27.467, 57 28" stroke="none" fill="#f8f9fb" fill-rule="evenodd"/><path d="M 35 1.886 C 26.056 4.777, 20.906 7.908, 14.435 14.388 C -0.305 29.148, -3.809 50.234, 5.293 69.401 C 14.887 89.603, 37.282 100.475, 59.239 95.590 C 77.765 91.469, 91.732 77.096, 96.475 57.272 C 98.361 49.389, 98.171 44.655, 95.602 35.555 C 90.934 19.020, 76.284 4.836, 60 1.085 C 53.102 -0.503, 41.212 -0.123, 35 1.886 M 25.081 29.647 C 11.741 36.294, 9.320 53.588, 20.311 63.719 C 25.326 68.342, 32.679 70.659, 37.978 69.285 L 41.242 68.440 37.257 65.678 C 35.027 64.132, 32.062 60.693, 30.523 57.865 C 28.192 53.582, 27.837 51.927, 28.194 46.997 C 28.694 40.087, 32.265 33.956, 37.636 30.787 C 40.228 29.258, 40.804 28.491, 39.826 27.872 C 37.171 26.188, 30.381 27.006, 25.081 29.647 M 57 28 C 56.005 28.643, 55.920 28.975, 56.747 28.985 C 58.630 29.008, 65.913 35.934, 67.726 39.425 C 72.294 48.223, 67.657 61.963, 58.500 66.762 L 55.500 68.335 58.500 69.170 C 63.175 70.471, 69.708 69.048, 74.766 65.625 C 92.236 53.806, 83.359 26.961, 62 27.021 C 60.075 27.026, 57.825 27.467, 57 28 M 0.310 48.500 C 0.315 51.800, 0.502 53.029, 0.725 51.232 C 0.947 49.435, 0.943 46.735, 0.715 45.232 C 0.486 43.729, 0.304 45.200, 0.310 48.500" stroke="none" fill="#2474dc" fill-rule="evenodd"/></svg>